<?xml version="1.0" encoding="UTF-8" standalone="no"?>
<svg width="234px" height="51px" viewBox="0 0 234 51" version="1.1" xmlns="http://www.w3.org/2000/svg" xmlns:xlink="http://www.w3.org/1999/xlink">
    <!-- Generator: Sketch 3.6.1 (26313) - http://www.bohemiancoding.com/sketch -->
    <title>Group Copy 3</title>
    <desc>Created with Sketch.</desc>
    <defs></defs>
    <g id="Page-1" stroke="none" stroke-width="1" fill="none" fill-rule="evenodd">
        <g id="Group-Copy-3">
            <path d="M57.0847778,8.92955931 L233.644712,8.92955931 L233.644712,35.3406159 L57.0847778,35.3406159 L57.0847778,8.92955931 Z" id="Clip-8"></path>
            <path d="M64.0805966,25.0539101 L68.058033,13.9126193 L68.1985622,13.9126193 L72.1402903,25.0539101 L64.0805966,25.0539101 Z M71.2867484,11.6386963 C70.7833775,10.3071932 69.5197668,9.42767892 68.1110194,9.42767892 C66.7011201,9.42767892 65.4375094,10.3071932 64.9341385,11.6386963 L57.2211602,32.0387678 C56.7097261,33.3912395 57.6980379,34.8427292 59.1298228,34.8427292 C59.9891242,34.8427292 60.7562753,34.2987118 61.0500043,33.4821032 L62.8492385,28.4706192 L73.3728003,28.4706192 L75.1720345,33.4821032 C75.4646116,34.2987118 76.2329146,34.8427292 77.0922159,34.8427292 L77.0922159,34.8427292 C78.5240009,34.8427292 79.5111608,33.3912395 78.9997267,32.0387678 L71.2867484,11.6386963 Z" id="Mask" fill="#FFFFFF"></path>
            <path d="M92.2706339,15.9416762 C91.179805,15.9416762 90.193797,16.1548565 89.2792055,16.6173295 C88.3991703,17.044855 87.5893998,17.7216733 86.885602,18.5755593 L86.885602,18.4683867 C86.885602,17.3477341 85.9871368,16.4402618 84.8790297,16.4402618 C83.7720745,16.4402618 82.8736092,17.3477341 82.8736092,18.4683867 L82.8736092,32.8132064 C82.8736092,33.933859 83.7720745,34.8424963 84.8790297,34.8424963 C85.9871368,34.8424963 86.885602,33.933859 86.885602,32.8132064 L86.885602,23.7722656 C87.0261312,22.3126213 87.5191352,21.1744949 88.3634621,20.390504 C89.1029681,19.6787382 89.9830033,19.3234377 90.9678594,19.3234377 C93.7139377,19.3234377 95.0869768,20.8180295 95.0869768,23.8433257 L95.0869768,32.8132064 C95.0869768,33.933859 95.9842902,34.8424963 97.0923973,34.8424963 C98.2005044,34.8424963 99.0989696,33.933859 99.0989696,32.8132064 L99.0989696,23.4880252 C99.0989696,18.4334392 96.8113389,15.9416762 92.2706339,15.9416762" id="Mask" fill="#FFFFFF"></path>
            <path d="M112.119804,19.7857943 C113.033244,19.7857943 113.773902,19.036751 113.773902,18.1129698 C113.773902,17.1891886 113.033244,16.4401453 112.119804,16.4401453 L109.726201,16.4401453 L109.726201,13.5266814 C109.726201,12.0821812 108.275985,11.100154 106.955933,11.6511609 C106.204908,11.9645243 105.714208,12.7042482 105.714208,13.5266814 L105.714208,16.4401453 L104.094667,16.4401453 C103.181227,16.4401453 102.440569,17.1891886 102.440569,18.1129698 C102.440569,19.036751 103.181227,19.7857943 104.094667,19.7857943 L105.714208,19.7857943 L105.714208,30.1792067 C105.714208,31.6749635 106.066683,32.7781423 106.77048,33.5609682 C107.508834,34.4148543 108.67108,34.8423798 110.254913,34.8423798 L111.662508,34.8423798 C112.575948,34.8423798 113.316606,34.0933365 113.316606,33.1695553 C113.316606,32.245774 112.575948,31.4967308 111.662508,31.4967308 L110.923002,31.4967308 C110.501415,31.4967308 110.219204,31.3895582 110.008411,31.1763779 C109.796465,30.9270851 109.726201,30.6067322 109.726201,30.1792067 L109.726201,19.7857943 L112.119804,19.7857943 Z" id="Mask" fill="#FFFFFF"></path>
            <path d="M141.766046,9.42756243 L141.766046,9.42756243 C140.604953,9.42756243 139.555591,10.1253493 139.09484,11.2028999 L131.335786,29.3605012 L131.195257,29.3605012 L123.402799,11.1994051 C122.940896,10.1230194 121.892687,9.42756243 120.732745,9.42756243 L120.730441,9.42756243 C119.123571,9.42756243 117.820796,10.7450865 117.820796,12.3701493 L117.820796,32.7597366 C117.820796,33.9106771 118.742299,34.8426128 119.879203,34.8426128 C121.017259,34.8426128 121.938762,33.9106771 121.938762,32.7597366 L121.938762,17.3292119 L122.079291,17.3292119 L128.772857,33.1895919 C129.195596,34.1914227 130.170085,34.8426128 131.248244,34.8426128 C132.326402,34.8426128 133.299739,34.1914227 133.723631,33.1895919 L140.417196,17.3292119 L140.557726,17.3292119 L140.557726,32.7597366 C140.557726,33.9095122 141.479228,34.8426128 142.616132,34.8426128 C143.754188,34.8426128 144.675691,33.9095122 144.675691,32.7597366 L144.675691,12.3701493 C144.675691,10.7450865 143.372917,9.42756243 141.766046,9.42756243" id="Mask" fill="#FFFFFF"></path>
            <path d="M57.0847778,8.92955931 L233.644712,8.92955931 L233.644712,35.3406159 L57.0847778,35.3406159" id="Mask"></path>
            <path d="M162.271096,30.037203 C161.356504,31.3547271 160.05373,32.0303804 158.399632,32.0303804 C156.709826,32.0303804 155.44276,31.3547271 154.528169,30.037203 C153.754106,28.8979117 153.365923,27.4394324 153.365923,25.6594353 C153.365923,23.8794382 153.754106,22.3836814 154.528169,21.245555 C155.44276,19.8930834 156.709826,19.2523776 158.399632,19.2523776 C160.05373,19.2523776 161.356504,19.8930834 162.271096,21.245555 C163.045158,22.3836814 163.467898,23.8794382 163.467898,25.6594353 C163.467898,27.4033199 163.045158,28.8629641 162.271096,30.037203 M158.399632,15.9416762 C155.618998,15.9416762 153.401631,16.8316747 151.747534,18.681567 C150.057728,20.4976766 149.24911,22.8112069 149.24911,25.6594353 C149.24911,28.4715511 150.057728,30.7839165 151.711826,32.5639136 C153.401631,34.4149708 155.618998,35.3410818 158.399632,35.3410818 C161.144559,35.3410818 163.397633,34.4149708 165.087439,32.5639136 C166.705828,30.7839165 167.550155,28.4715511 167.550155,25.6594353 C167.550155,22.8112069 166.705828,20.4976766 165.05173,18.681567 C163.361925,16.8316747 161.144559,15.9416762 158.399632,15.9416762" id="Mask" fill="#FFFFFF"></path>
            <path d="M179.867768,19.7857943 C180.781207,19.7857943 181.521865,19.036751 181.521865,18.1129698 C181.521865,17.1891886 180.781207,16.4401453 179.867768,16.4401453 L177.474164,16.4401453 L177.474164,13.5266814 C177.474164,12.0821812 176.023949,11.100154 174.703896,11.6511609 C173.95172,11.9645243 173.462171,12.7042482 173.462171,13.5266814 L173.462171,16.4401453 L171.84263,16.4401453 C170.92919,16.4401453 170.188533,17.1891886 170.188533,18.1129698 C170.188533,19.036751 170.92919,19.7857943 171.84263,19.7857943 L173.462171,19.7857943 L173.462171,30.1792067 C173.462171,31.6749635 173.813494,32.7781423 174.518444,33.5609682 C175.256798,34.4148543 176.419043,34.8423798 178.002876,34.8423798 L179.410472,34.8423798 C180.323911,34.8423798 181.064569,34.0933365 181.064569,33.1695553 C181.064569,32.245774 180.323911,31.4967308 179.410472,31.4967308 L178.670966,31.4967308 C178.249378,31.4967308 177.967168,31.3895582 177.756374,31.1763779 C177.544429,30.9270851 177.474164,30.6067322 177.474164,30.1792067 L177.474164,19.7857943 L179.867768,19.7857943 Z" id="Mask" fill="#FFFFFF"></path>
            <path d="M187.92677,16.4397958 C186.818663,16.4397958 185.920198,17.3484331 185.920198,18.4690857 L185.920198,32.8139053 C185.920198,33.9345579 186.818663,34.8420303 187.92677,34.8420303 C189.034877,34.8420303 189.933342,33.9345579 189.933342,32.8139053 L189.933342,18.4690857 C189.933342,17.3484331 189.034877,16.4397958 187.92677,16.4397958" id="Mask" fill="#FFFFFF"></path>
            <path d="M187.92654,8.92932633 C187.152477,8.92932633 186.518944,9.17861911 185.991384,9.67603977 C185.462672,10.1757903 185.21617,10.8153311 185.21617,11.599322 C185.21617,12.3821479 185.462672,13.0228537 185.991384,13.5563869 C186.518944,14.0549724 187.152477,14.3042652 187.92654,14.3042652 C188.700602,14.3042652 189.334135,14.0549724 189.862848,13.5563869 C190.390408,13.0578013 190.672618,12.3821479 190.672618,11.599322 C190.672618,10.8153311 190.390408,10.1757903 189.897404,9.67603977 C189.369844,9.17861911 188.700602,8.92932633 187.92654,8.92932633" id="Mask" fill="#FFFFFF"></path>
            <path d="M226.816146,15.9416762 C225.725317,15.9416762 224.739309,16.1548565 223.824718,16.6173295 C222.944682,17.044855 222.134912,17.7216733 221.431114,18.5755593 L221.431114,18.4683867 C221.431114,17.3477341 220.532649,16.4402618 219.424542,16.4402618 C218.317587,16.4402618 217.419121,17.3477341 217.419121,18.4683867 L217.419121,32.8132064 C217.419121,33.933859 218.317587,34.8424963 219.424542,34.8424963 C220.532649,34.8424963 221.431114,33.933859 221.431114,32.8132064 L221.431114,23.7722656 C221.571643,22.3126213 222.064647,21.1744949 222.908974,20.390504 C223.64848,19.6787382 224.528515,19.3234377 225.513371,19.3234377 C228.25945,19.3234377 229.632489,20.8180295 229.632489,23.8433257 L229.632489,32.8132064 C229.632489,33.933859 230.529802,34.8424963 231.637909,34.8424963 C232.746016,34.8424963 233.644482,33.933859 233.644482,32.8132064 L233.644482,23.4880252 C233.644482,18.4334392 231.356851,15.9416762 226.816146,15.9416762" id="Mask" fill="#FFFFFF"></path>
            <path d="M57.0847778,8.92955931 L233.644712,8.92955931 L233.644712,35.3406159 L57.0847778,35.3406159 C57.0847778,35.3406159 198.759392,36.7075712 198.759392,29.1747603" id="Mask"></path>
            <path d="M207.917161,30.037203 C207.002569,31.3547271 205.699794,32.0303804 204.045697,32.0303804 C202.357043,32.0303804 201.088825,31.3547271 200.174233,30.037203 C199.400171,28.8979117 199.011988,27.4394324 199.011988,25.6594353 C199.011988,23.8794382 199.400171,22.3836814 200.174233,21.245555 C201.088825,19.8930834 202.357043,19.2523776 204.045697,19.2523776 C205.699794,19.2523776 207.002569,19.8930834 207.917161,21.245555 C208.691223,22.3836814 209.113962,23.8794382 209.113962,25.6594353 C209.113962,27.4033199 208.691223,28.8629641 207.917161,30.037203 M204.045697,15.9416762 C201.265062,15.9416762 199.047696,16.8316747 197.393599,18.681567 C195.703793,20.4976766 194.895174,22.8112069 194.895174,25.6594353 C194.895174,28.4715511 195.703793,30.7839165 197.35789,32.5639136 C199.047696,34.4149708 201.265062,35.3410818 204.045697,35.3410818 C206.790623,35.3410818 209.043698,34.4149708 210.733503,32.5639136 C212.351893,30.7839165 213.19622,28.4715511 213.19622,25.6594353 C213.19622,22.8112069 212.351893,20.4976766 210.697795,18.681567 C209.007989,16.8316747 206.790623,15.9416762 204.045697,15.9416762" id="Mask" fill="#FFFFFF"></path>
            <g id="Group-Copy-2" transform="translate(0.000000, -0.000000)" fill="#6C5DE7">
                <path d="M7.68666946,1.52806072 L23.6975169,17.6452137 L39.6683454,1.56834548 C40.4564153,0.629223159 41.6348962,0.0328273943 42.9517921,0.0328273943 C45.3242913,0.0328273943 47.2477143,1.96902119 47.2477143,4.35756162 L47.2477143,32.8753305 C47.2477143,35.2638709 45.3242913,37.2000647 42.9517921,37.2000647 C40.579006,37.2000647 38.655583,35.2638709 38.655583,32.8753305 L38.655583,14.7766497 L26.8330071,26.6775442 C25.9648431,27.5514725 24.816559,27.9715783 23.6790821,27.9378618 C22.5376144,27.9716362 21.385399,27.5500289 20.5143435,26.67304 L8.71784622,14.7983969 L8.71784622,46.6126876 C8.71784622,49.0015169 6.79442318,50.9377106 4.42163709,50.9377106 C2.048851,50.9377106 0.125427959,49.0015169 0.125427959,46.6126876 L0.125427959,4.38263246 C0.125330119,4.36553609 0.125332359,4.34843926 0.125434678,4.33134292 C0.129580232,1.94635742 2.05141186,0.0143406864 4.42163709,0.0143406864 C5.72831516,0.0143406864 6.89871785,0.601517439 7.68666946,1.52806072 Z M11.5729387,31.8478739 C11.5729387,33.8871889 13.2148642,35.5400161 15.2401543,35.5400161 C17.2657314,35.5400161 18.9076569,33.8871889 18.9076569,31.8478739 C18.9076569,29.8088478 17.2657314,28.1560206 15.2401543,28.1560206 C13.2148642,28.1560206 11.5729387,29.8088478 11.5729387,31.8478739 Z" id="Clip-14"></path>
            </g>
        </g>
    </g>
</svg>